# xmcd
#
# Track frame offsets: 
#        150
#        22148
#        47354
#        67884
#        92614
#        111381
#        114416
#        138680
#        168640
#
# Disc length: 2486 seconds
#
# Revision: 0
# Processed by: cddbd v1.5.2PL0 Copyright (c) Steve Scherf et al.
# Submitted via: ExactAudioCopy v0.99pb5
#
DISCID=7909b409
DTITLE=Way Out - Way Out - Live @ La Cravache, Cernier (22.02.2003) - 
DTITLE=[CD1]
DYEAR=2003
DGENRE=Blues
TTITLE0=Crocodile Intro
TTITLE1=Lala
TTITLE2=Walking By Myself
TTITLE3=I'm Back Again
TTITLE4=Paint In Black
TTITLE5=Crocodile Interlude
TTITLE6=Still Raining
TTITLE7=Knocking On Heaven's Door
TTITLE8=Johnny B. Good
EXTD=
EXTT0=
EXTT1=
EXTT2=
EXTT3=
EXTT4=
EXTT5=
EXTT6=
EXTT7=
EXTT8=
PLAYORDER=
